<svg xmlns="http://www.w3.org/2000/svg" xmlns:xlink="http://www.w3.org/1999/xlink" stroke="#134e4a"  preserveAspectRatio="xMidYMid meet" version="1.0" viewBox="-7.2 -1.3 191.7 504.9" zoomAndPan="magnify"><g stroke="#134e4a"><g id="change1_1"><path d="M148.67,452.56c2.17-3.48,3.15-6.43,6.95-7.12,8.88-1.61,12.05,.82,12.08,9.95,.03,9.14-.07,18.27,.04,27.41,.05,4.18-1.03,7.27-5.64,8.18-4.91,.98-8.22-.55-10.35-5.05-.36-.76-.39-1.69-.79-2.43-1.53-2.86-3.41-3.14-4.93-.44-1.26,2.24-1.8,4.89-4.95,5.25-3.94,.45-7.81,1.96-11.84,.74-2.69-.81-4.55-2.34-4.59-5.41-.01-.86,.03-1.72-.05-2.57-.25-2.74,.28-6.68-3.55-6.56-3.9,.13-2.96,4.11-3.09,6.81-.42,8.3-1.72,9.97-10.13,10.11-5.69,.1-10.18,1.51-14.69,5.37-8.01,6.87-19.54,1.98-21.29-8.63-.55-3.34-.52-6.86-.21-10.25,2.32-25.64,.42-51.38,1.76-77.01,1.5-28.81,.8-57.65,1.87-86.44,.42-11.4,1.15-22.79,1.05-34.21-.03-3.99,.22-7.99-2.09-11.61-1.55-2.44-.62-4.82,.34-7.32,3.02-7.93,1.65-16.1,1.74-24.38-3.99-.08-5.81,2.59-8.41,3.55-5.51,2.03-10.97,3.53-16.28-.43-3.68-2.75-4.68-6.65-2.59-10.58,1.91-3.6,4.64-6.07,8.99-3.97,4.17,2.02,5.69-.37,6.94-3.62,4.41-11.49-6.6-28.54-18.97-29.47-3.09-.23-4.37,1.28-5.72,3.91-2.95,5.75-7.43,6.98-12.57,4.1-4.8-2.69-5.8-8.05-2.4-13.31,.77-1.18,1.75-2.28,2.82-3.19,2.4-2.04,2.45-4.1,.87-6.75-3.02-5.09-4.34-10.53-2.42-16.4,.93-2.84-.53-4.26-3.08-5.04C-1.22,148.2-7.18,111.01,9.17,89.57c2.31-3.02,5.08-5.54,8.41-7.15,4.54-2.2,5.93-5.27,5.27-10.31-1.15-8.69,3.19-14.87,10.67-18.77,7.44-3.88,13.21-2.3,20.57,5.02,5.7,5.67,10.24,5.82,15.37,.8,2.9-2.84,3.48-5.6,1.06-9.05-4.43-6.3-6.08-13.48-5.95-21.07C64.85,12.94,79.53-1.26,94.4,.09c16.92,1.53,29.27,17.93,26.16,34.75-1.05,5.68-3.08,10.92-6.39,15.74-3.4,4.93-3,6.94,1.31,10.94,3.79,3.52,7.71,4.05,11.6,1.28,1.6-1.14,2.85-2.78,4.28-4.16,6.25-6,12.33-7.18,19.47-3.81,7.02,3.32,12.51,11.54,10.67,18.74-1.65,6.45,.8,8.8,5.74,11.97,11.05,7.09,14.42,18.8,15.54,31.03,1.73,18.9-6.83,32.99-24.42,40.73-3.2,1.41-4.68,3.07-3.72,6.44,1.61,5.66,.31,10.78-2.99,15.41-1.86,2.6-1.54,4.57,.62,6.75,1.38,1.39,2.63,3.06,3.44,4.83,2.32,5.04,.4,9.82-4.58,12.05-4.55,2.04-9.33,.69-11.13-4.39-1.8-5.06-4.77-4.89-8.66-3.83-11.47,3.11-19.93,17.31-16.78,28.15,.96,3.3,1.99,5.63,6.56,4.11,5.2-1.73,8.27,.34,9.66,5.12,1.38,4.74-.95,9.2-5.83,10.8-5.23,1.71-10.11,.03-14.99-1.75-2.38-.87-3.92-3.3-7.15-3.58-.65,8.01-1.43,15.89,.42,23.71,.82,3.47,1.25,6.65-.8,9.86-1.62,2.53-1.3,5.51-1.31,8.35-.2,39.11-.41,78.23-.53,117.34-.02,7.07,.09,7.2,6.78,9.6,2.65,.95,4.27,2.51,5.46,4.97,1.31,2.73,3.66,3.18,5.27,.62,1.92-3.05,3.7-5.73,7.73-5.76,5.15-.04,10.38-.37,14.42,3.76,2.57,2.62,4.53,2.35,7.06-.44,3.3-3.64,14-5.03,18.27-2.94,3.09,1.51,3.38,4.4,3.4,7.29,.05,6.85,.1,13.71-.07,20.55-.09,3.69-.15,7.63-4.92,8.87-4.97,1.29-10.47-.3-13.04-4-.78-1.12-1.2-2.5-2.5-5.3-.72,6.17-4.58,6.05-8.14,6.58-1.19,.18-2.17,1.03-1.86,2.33,.16,.68,1.08,1.71,1.63,1.69,5.08-.17,6.9,3.67,8.61,8.08ZM93.77,99.1c1.03,15.94,1.49,18.03,6.1,24.5,.16-9.78-2.5-17.23-6.17-24.45-.41-1.71,.37-4.13-2.52-4.45-6.15,11.46-7.84,18.02-6.16,26.6,1.36-6.07,2.38-10.71,3.46-15.34,.71-3.08,1.39-6.22,5.29-6.86Zm58.13-34.46c1.76-1.96,2.46-3.9-.29-5.58-5.61-3.44-11.14-3.89-16.48,.59-.75,.86-1.51,1.73-2.27,2.59-1.49,1.85-2.2,4.01-2.32,6.33-.39,7.46,6.36,15.47,12.44,14.47,3.35-.55,6.58-1.86,9.82-2.98,3.6-1.25,4.23-4.36,4.31-7.62,.09-3.6-.2-7.06-4.99-7.44l-.22-.35ZM40.41,135.2c1.19,5.43,2.7,10.72,9.17,12.02,5.89,1.19,11.42,3.27,16.97,5.56,6.74,2.78,12.59-.02,16.35-6.86,3.67-6.68,2.46-13.94-3.12-18.68-.22,.49-.72,1.06-.62,1.47,1.68,6.98-.61,12.31-6.65,16.04-6.39,3.95-12.55,2.78-18.39-1.21-3.04-2.09-5.85-4.52-8.76-6.79,.51-8.66-.98-17.47,1.94-25.96,5.6-7.6,12.99-12.7,21.84-15.82,2.15-.76,4.12-2.14,6.3-2.66,13.61-3.23,18.91-24.34,9.74-34.69-1.88-2.13-3.52-4.51-5.05-6.91-5.77-9.04-5.18-23.94,1.19-32.39,6.89-9.14,17.17-8.68,23.12,1.06,1.65,2.7,2.83,5.61,3.44,8.72,.69,3.59,1.34,7.19,2.07,11.12,1.41-2.44,.59-4.73,.84-6.91,.27-2.38-.99-4.98,.95-7.28,4.2,8.94,2.84,16.96-3.87,23.03-4.5,4.07-7.82,9.05-10.96,14.16-5.56,9.06-1.61,24.91,9.07,29.36,1.84,.77,3.61,1.71,5.39,2.62,8.59,4.42,17.91,7.84,23.04,16.99,.38,.67,1.23,1.45,1.92,1.51,5.44,.5,4.24,3.73,2.49,6.58-2.13,3.45-3.4,8.79-1.44,10.41,5.8,4.78,1.81,8.63-.11,12.32-2.72,5.23-2.96-.54-4.73-1.62-5.52,5.63-11.81,9.85-20.4,6.82-9.14-3.23-10.22-10.89-9.68-19.81-5.77,5.94-6.65,13.8-2.92,19.94,3.31,5.45,8.98,7.79,15.56,5.8,4.63-1.41,9.1-3.87,13.95-3.93,8.2-.09,11.51-5.19,13.61-11.85,6.16-19.55-3.89-39.37-23.41-45.84-4.73-1.57-8.9-3.83-12.55-7.1-8.28-7.41-9.43-17.96-2.88-26.93,1.51-2.06,3.33-3.91,5.09-5.78,6.68-7.09,9.3-15.58,8.54-25.15-1.02-12.83-11.9-22.98-24.51-23.05-12.72-.07-23.42,9.79-24.68,22.72-.8,8.31,1.32,15.85,6.06,22.67,1.95,2.81,4.16,5.45,6.05,8.31,4.75,7.17,4.46,14.5,.37,21.84-3.57,6.4-9.34,9.75-16.14,11.81-7.74,2.35-15.08,5.4-18.95,13.33-7.9,9.3-9.92,19.58-5.22,31Zm56.54,191.06h.18c0-16.56,.14-33.11-.07-49.67-.08-6.13-2.17-7.57-8.85-7.45-6.13,.1-7.59,1.29-7.76,7.51-.43,15.68-1.99,31.29-2.05,47.02-.09,21.35,.36,42.7-.95,64.06-1.18,19.28-.68,38.66-.95,58-.08,5.42,1.39,11.65-.79,16.06-2.75,5.57,7.71,8.59,1.29,13.45,.47,.3,.92,.63,1.41,.88,1.6,.84,2.31,2.25,.41,3.01-5.56,2.22,4.56,5.89-.88,7.9,1.4,1.48,3.2,.75,4.82,.81,12.5,.49,12.34,.46,12.51-11.88,.26-19.11-.85-38.24,1.3-57.32,.41-3.62,.47-7.35-1.25-10.91-3.02-6.24-2.51-13.04-.88-19.27,1.76-6.73,2.44-13.41,2.49-20.23,.11-13.99,.03-27.98,.03-41.96Zm6.92,152.17c.66,.87,1.34,1.45,1.6,2.17,.88,2.43,2.31,3.9,5.09,3.5,2.96-.43,3.25-2.68,3.57-5.05,.27-1.96,.56-3.99,1.3-5.8,1.41-3.45,4.1-5.58,7.94-5.41,3.63,.16,5.45,2.77,6.53,5.91,.84,2.45,1.34,4.98,1.04,7.58-.46,4.04,1.82,4.76,5.19,4.78,4.59,.03,5.17-3.45,6.62-6.57,2.81-6.05,8.16-6.97,12.06-2.26,.89,1.08,1.48,2.43,2.1,3.71,.94,1.93,2.14,3.5,4.56,2.95,2.26-.52,3.22-2.39,3.43-4.44,.88-8.82,.84-17.66,.27-26.49-.15-2.27-1.6-3.64-3.86-3.89-2.47-.27-4.57,.37-5.4,3.05-.34,1.09-.49,2.23-.79,3.33-.61,2.25-2.24,3.2-4.45,3.26-2.44,.06-4.93-.46-5.32-3.19-.6-4.17-2.45-6.46-6.68-7.66-3.58-1.02-5.68-6.25-3.19-8.06,5.03-3.66,9.21-7.64,12.95-12.63,1.82-2.43,5.29-.13,7.21,5.27,1.05,2.94,2.68,4.27,5.65,3.94,2.75-.3,3.91-2.23,3.97-4.75,.14-5.7,.2-11.41,.16-17.12-.01-2.11-.92-3.82-3.09-4.67-3.83-1.51-9.37-.14-12.3,3.11-5.74,6.37-8.78,6.5-14.69,.6-5.81-5.81-9.19-5.53-14.18,1.17-4.69,6.29-9.15,6.46-13.25-.13-1.61-2.58-2.69-2.96-5.59-2.65-3.8,.41-2.65,3-2.86,4.77-.82,7.1,.83,14.12,.42,21.32-.82,14.22-.4,28.52-.45,42.78,0,.83,.48,1.57,1.51,1.6,1.57-.61,1.05-2.55,2.93-4.03Zm-8.99-388.21c2.4,7.89,5.05,15.72,7.08,23.71,.97,3.8,.52,7.88,4.37,10.59,2.13,1.5,1.8,4.03,.9,6.28-1.86,4.7-.26,8.41,3.44,11.31,3.94,3.09,8.23,3.41,12.83,1.22,8.17-3.88,12.46-14.01,10.2-24.03-2.49-11.05-10.7-16.35-20.19-20.32-6.28-2.63-12.85-4.62-18.64-8.76Zm-6-.12c-9.87,4.63-18.52,7.24-26.36,11.78-5.4,3.13-9.32,7.66-11.33,13.48-2.93,8.51-2.92,16.92,3.38,24.14,3.7,4.24,10.09,5.33,14.9,3.1,4.31-2,6.31-5.88,5.56-12.1-.37-3.07-.14-5.66,2.13-7.84,1.77-1.69,2.34-3.85,2.57-6.17,.41-4.32,2.03-8.27,3.68-12.23,1.72-4.11,3.22-8.32,5.46-14.15Zm9.35,134.14c.08,0,.16,0,.24,0,0-7.67,.02-15.34-.01-23.01-.01-2.91-.31-5.7-3.46-7.16-6.71-3.13-12.58,.23-13.02,7.66-.58,9.63-1.09,19.28-1.42,28.92-.24,6.81-.29,13.64-.14,20.45,.12,5.86,1.22,6.8,7.01,7.22,7.94,.58,10.31-1.18,10.72-9.37,.41-8.22,.09-16.47,.09-24.71Zm70.33-106.54c-.1-7.13-2.88-14.38-6.6-17.85-4.27-3.99-10.29-4.16-15.7-.45-3.93,2.69-4.26,4.25-1.61,11.09,3.88,9.99,3.98,19.93,.56,30.07-1.68,4.98,.11,6.93,5.22,6.34,4.9-.57,8.38-3.43,11.04-7.32,4.64-6.78,6.47-14.49,7.09-21.87Zm-153.72-2.29c-.24,8.82,1.8,16.4,6.71,23.05,2.8,3.79,6.34,6.54,11.38,6.56,4.04,.02,5.24-1.17,4.09-5.19-3.26-11.41-2.62-22.39,2.17-33.31,2.15-4.91,.5-8.04-4.25-10.36-4.24-2.07-8.19-1.74-12,1.14-6.25,4.72-8.62,11.08-8.09,18.11Zm20.88,34.55c-10.92-.18-16.98-6.76-20.98-15.52-4.43-9.7-4.91-19.91-1.38-30.04,4.68-13.43,16.02-16.91,27.72-8.73,.46,.32,.83,.78,1.27,1.15,1.22,1.04,2.53,1.31,3.84,.24,1.53-1.25,1.85-2.88,.85-4.55-.72-1.2-1.75-2.23-2.66-3.32-6.4-7.78-25.96-8.36-33.26,2.99-5.95,9.25-8.78,19.2-7.68,30.05,1.08,10.6,5.09,19.9,14.21,26.23,5.61,3.89,11.51,6.05,18.06,1.51ZM92.43,59.44c2.74-3.25,5.2-6,7.47-8.9,6.99-8.94,6.66-22.99-.64-30.76-4.91-5.22-9.96-5.07-14.35,.62-2.85,3.7-4.04,8.07-4.62,12.67-1.4,11.07,3.91,19.07,12.15,26.36Zm54.37,92.46c8.53,3.24,15.66,.4,21.69-5.3,15.41-14.55,14.43-43.78-1.72-57.57-8.77-7.49-22.83-5.64-29.49,3.85-1.25,1.78-2.03,3.5-.21,5.34,1.57,1.58,3.07,.91,4.56-.18,.92-.67,1.83-1.39,2.82-1.94,9.01-5.04,17.26-3.02,23.05,5.42,5.83,8.51,5.75,17.55,3.01,27.03-1.56,5.42-4.75,10.24-5.59,15.89-6.1,2.23-11.32,6.7-18.12,7.46Zm-70.25,67.01c.02-9.36-4.18-17.19-10.05-23.83-7.08-8-16.37-12.2-27.3-11.74-5.48,.23-10.64,4.26-11.53,8.57-.6,2.91,.4,5.11,3.33,6.01,2.01,.62,3.86,.54,4.84-1.98,2.78-7.11,4.56-8.14,11.33-6.95,12.28,2.17,23.65,17.32,22.11,29.68-.65,5.19-2.22,10.07-7.2,12.92-1.79,1.02-3.65,1.96-5.04-.64-.75-1.41-1.84-2.29-3.36-1.16-1.47,1.1-2.16,2.71-1.47,4.52,1.31,3.43,4,4.43,7.5,4.27,10.4-.5,16.78-7.9,16.84-19.67Zm62.57-34.13c-17.76,.06-35.24,16.36-36.43,33.28-.33,4.68,.5,9.1,2.95,13.14,3.69,6.09,10.24,9.22,16.66,8.1,3.24-.56,5.36-2.12,4.87-5.7-.25-1.81-1.46-3.66-3.43-2.45-2.49,1.55-4.57,3.56-7.61,1.44-2.73-1.91-3.85-4.84-4.98-7.79-6.09-15.89,10.72-34.06,24.1-34.77,4.91-.26,7.71,1.51,9.05,6.61,.8,3.05,2.38,3.68,4.89,3.14,2.5-.54,4.06-2.22,3.85-4.87-.11-1.35-.68-2.78-1.43-3.93-3.1-4.77-7.66-6.58-12.49-6.18Zm-102.51-11.69c-.15-1.19-.2-2.31-.43-3.4-1.8-8.52,4.8-17.2,16.67-12.53,6.54,2.57,9.64,9.02,7.71,15.96-.38,1.36-1.19,2.61-1.52,3.97-.77,3.17,1.07,4.12,3.79,3.93,2.78-.19,4.65-1.94,6.16-4.1,3.46-4.96,3.05-12.3-.97-17.5-7.44-9.62-24.76-11.1-33.74-2.88-5.45,4.98-6.19,10.3-2.39,17.34,1.9-1.41-1.11-3.88,1.13-5.18,2.05,.72,1.03,3.81,3.6,4.39Zm108.03,.28c.12,1.34-1.35,4,1.6,4.4,2.13,.29,3.26-2.03,4.08-3.86,2.37-5.25,1.28-10.08-2.27-14.33-5.78-6.91-13.57-8.07-21.79-6.57-8.27,1.51-13.64,6.71-16.12,14.76-.32,1.05-.39,3.2-.27,3.23,5.98,1.12,5.05,7.47,8.17,10.69,.82,.85,1.65,1.8,2.88,1.05,1.11-.68,1.03-1.94,.75-3.06-.63-2.48-1.6-4.91-1.95-7.43-.95-7,3.56-13.29,10.2-14.58,6.35-1.23,12.1,2.56,14.27,9.36,.62,1.94,.98,3.86,.44,6.35ZM79.81,66.84c-2.78-.35-3.69,2.27-5.41,3.52-3.02,2.2-6.25,4.93-9.87,4.4-7.19-1.05-10.73,3.51-14.74,7.84-1.63,1.75-3.32,3.27-1.21,5.73,1.76,2.05,3.56,3.5,6.58,2.25,4.44-1.83,9.12-3.11,13.47-5.13,8.17-3.79,11.98-10.4,11.17-18.61Zm24.68-1.13c-.86,9.55,2.33,14.81,7.91,18.95,5.11,3.8,11.39,4.99,17.07,7.51,3.08,1.37,7.51-3.26,5.69-5.84-2.84-4.02-5.19-10.02-10.55-10.21-7.96-.28-14.06-3.16-20.1-10.4Zm-22.95,89.91c-8.68,2.22-8.88,2.27-7.27,8.89,1.65,6.8-.34,12.26-5.16,16.97-1.01,.99-2.11,1.89-3.21,2.79-1.84,1.51-2.4,3.3-.57,5.05,4.22,4.04,7.74,8.69,11.88,13.2,.81-8.43,1.97-16.77,.48-24.6-1.48-7.76-.94-14.48,3.84-22.3Zm51.24,5.71c-4.93-.18-9.01,3.75-9.32,8.99-.27,4.48,3.1,10.86,5.86,11.08,5.11,.42,11.51-5.66,11.82-11.25,.26-4.64-3.53-8.64-8.35-8.82Zm-92.16,7.22c.01,5.57,3.45,10.48,8.14,11.71,1.76,.46,3.69,.63,4.62-1.01,1.96-3.42,4.17-6.85,4.01-11.05-.18-4.72-4.2-8.62-8.81-8.67-4.87-.05-7.98,3.47-7.97,9.01Zm-13.72-95.33c2.98-2.68,3.48-5.66,5.03-8.02,2.09-3.18,4.98-4.72,8.76-3.97,3.61,.72,5.04,3.42,5.41,6.82,.09,.85,.03,1.72,.15,2.56,.32,2.2,.19,5.38,2.81,5.54,3.03,.18,3.66-3.16,4.28-5.56,.41-1.59,.35-3.42,.07-5.07-1.28-7.41-7.55-11.73-15.06-10.53-8.25,1.32-13.01,8.47-11.44,18.23Zm75.68,127.63c.57,.12,1.15,.24,1.72,.37,3.48-3.66,6.96-7.31,10.42-10.97,1.6-1.69,2.1-3.57-.11-4.99-4.37-2.8-6.57-7.37-9.71-13.06-4.13,10.58-1.61,19.71-2.32,28.65Zm-13.55,59.64c-3.78,.54-6.84,1.07-9.67,2.44-.81,.39-1.27,1.15-1.03,2.09,.24,.92,1.04,1.32,1.89,1.33,5.92,.13,11.84,.23,17.77,.27,1.13,0,2.41-.26,2.4-1.76,0-1.26-.97-2.02-2.1-2.29-3.28-.79-6.59-1.48-9.25-2.07ZM108.33,59.84c1.6,10.07,10.44,15.22,16.71,9.7-6.47-1.88-12.13-4.7-16.71-9.7Zm-49.38,8.03c5.48,3.83,8.06,3.87,12.43,.79,4.05-2.86,4.93-4.78,3.93-9.36-4.38,4.67-9.38,7.93-16.36,8.57Zm31.22,69.13c4.74-7.56,4.74-12.29,.48-20.65-2.4,6.58-3.64,13.03-.48,20.65Zm7.82,51.39c-8.87-4.24-10.28-4.11-14.38,1.13,4.67-.29,8.8,.85,14.38-1.13Zm7.71-21.26c.97-2.21,1.65-3.71,2.28-5.24,.63-1.54,1.55-3.24-.85-4.08-1.53-.54-3.25-1.64-4.76-.63-1.76,1.18-.87,3-.17,4.48,.81,1.72,1.18,3.72,3.5,5.46Z"/><path d="M132.87,62.23c.75-.86,1.51-1.73,2.26-2.59,6.19-1.39,11.88-1.04,16.04,4.64,.14,.19,.49,.24,.74,.35l.22,.35c.4,1.64,.95,3.25,1.19,4.92,.54,3.81-.99,6.67-4.54,8.14-3.6,1.49-6.59,.03-9.09-2.6-2.11-2.22-2.81-4.94-1.86-7.81,1.32-4.01-.84-3.22-3.32-2.87-1.29,.18-1.42-1.43-1.62-2.52Z"/><path d="M83.65,407.9c0,7.63-.63,15.33,.19,22.87,.72,6.6,1.08,13.01-.2,19.51-.16,.82-.15,1.75-1.65,2.09v-44.2c.55-.09,1.1-.18,1.66-.27Z"/><path d="M103.93,442.81c-2.06-6.84-1.88-13.59-.33-20.34,2.84,6.76,2.97,13.57,.33,20.34Z"/><path d="M86.46,9.47c-6.14,5.06-9.78,11.86-13.41,19.84-1.17-10.16,3.49-17.05,13.41-19.84Z"/></g></g></svg>